<svg xmlns="http://www.w3.org/2000/svg" width="200" height="200"><g transform="translate(-21 -138)"><rect width="200" height="200" fill="#140648" rx="23" transform="translate(21 138)"/><path fill="#9bf316" d="M60.088 298.999v-42.468l107.58-72.967-107.579.569v-6.272h116.26v42.183L68.77 293.298h107.02l.559 5.7Zm37.926-9.868 6.857-4.19h76.373v4.19Zm14.935-11.636 6.363-4.438h70.251v4.438Zm15.176-10.62 6.122-4.683h42.1v4.683ZM62.779 214.61v-5.172h48.224l-6.366 5.177Zm-11.262-10.555v-4.683h73.928l-6.363 4.683Zm0-12.392v-4.683h89.109l-6.606 4.683Z"/></g></svg>